<svg viewBox="0 0 71 17" fill="none" xmlns="http://www.w3.org/2000/svg"><g clip-path="url(#a)"><path d="M10.9 11.04c-.9-3.78-3.74-9.7-4.8-10.78a.95.95 0 0 0-.65-.26c-.25 0-.48.1-.65.26-1.06 1.08-3.9 7-4.8 10.78-.08.35.2.59.47.59h1.43c.25 0 .46-.14.57-.33a3.41 3.41 0 0 1 2.96-1.67c1.34 0 2.46.77 2.97 1.67.1.2.33.33.57.33h1.42c.3 0 .59-.24.51-.59Zm-5.45-3.18c-.73 0-1.33-.58-1.33-1.29 0-.7.6-1.29 1.33-1.29.73 0 1.33.59 1.33 1.3 0 .7-.59 1.28-1.33 1.28Z" fill="#7000E3"/><path d="M5.45 11.63c-.8 0-1.33.6-1.33 1.28 0 .82.73 2.9 1.33 4.07.6-1.18 1.33-3.25 1.33-4.07a1.3 1.3 0 0 0-1.33-1.29Zm-4.53 1.28c-.5 0-.9.44-.9.96 0 .69.44 1.53.9 2.35.46-.8.9-1.65.9-2.35 0-.52-.4-.96-.9-.96Zm9.08 0c-.5 0-.9.44-.9.96 0 .69.44 1.53.9 2.35.46-.8.9-1.65.9-2.35 0-.52-.4-.96-.9-.96Z" fill="#FE4C04"/><path d="M30.12 1.74h-1.38a.28.28 0 0 0-.28.27l.01 2.32c-.5-.34-1.44-.34-1.77-.34-1.36 0-3.7 1.15-3.7 3.73 0 2.94 2.4 3.9 3.7 3.9l3.4.02c.16 0 .29-.12.29-.28v-9.36c.02-.14-.11-.26-.27-.26Zm-1.65 8.15s-.4.08-1.2.08c-2 0-2.35-1.5-2.35-2.25 0-.36.29-2.1 2.17-2.1.65 0 1.11.18 1.38.32v3.95Zm-10.31-5.91a4.43 4.43 0 0 0-2.95 1.12.26.26 0 0 0 0 .38l.9.88c.11.1.3.1.42-.02a2.13 2.13 0 0 1 1.58-.7c1.05 0 1.58.78 1.58 1.2h-1.1c-.51 0-.99.06-1.41.16-.45.11-.83.26-1.16.48-.33.21-.59.47-.78.78a2.45 2.45 0 0 0-.11 2.03c.13.28.29.5.5.72.23.2.48.35.78.46.3.1.64.16 1.02.16h3.87c.15 0 .28-.13.28-.28l.02-3.36c0-2.38-1.02-4.01-3.44-4.01Zm1.53 6.26-1.67.02h-.02.02c-1.41 0-1.48-1.89.07-1.89h1.6v1.87Zm23.1-6.26a4.43 4.43 0 0 0-2.94 1.12.26.26 0 0 0 0 .38l.9.88c.11.1.3.1.41-.02a2.13 2.13 0 0 1 1.58-.7c1.05 0 1.6.78 1.6 1.2h-1.12c-.5 0-.98.06-1.4.16-.45.11-.83.26-1.16.48-.34.21-.59.47-.78.78a2.45 2.45 0 0 0-.11 2.03c.13.28.29.5.5.72.23.2.48.35.78.46.3.1.64.16 1.02.16h3.86c.16 0 .29-.13.29-.28l.01-3.36c0-2.38-1-4.01-3.43-4.01Zm1.54 6.26-1.68.02h-.01.01c-1.4 0-1.47-1.89.08-1.89h1.6v1.87Zm17.72-.81a.29.29 0 0 0-.41.01 2.13 2.13 0 0 1-3.58-.68 2.34 2.34 0 0 1 0-1.74 2.22 2.22 0 0 1 2-1.38c.39 0 .74.07 1 .24.2.1.37.25.53.4.1.1.3.1.41 0l.89-.87a.26.26 0 0 0 0-.39 3.75 3.75 0 0 0-1.18-.74 4.63 4.63 0 0 0-3.26 0 3.97 3.97 0 0 0-2.14 2.08 3.81 3.81 0 0 0 0 3.08 3.88 3.88 0 0 0 2.16 2.06 4.43 4.43 0 0 0 4.53-.83.26.26 0 0 0 0-.38l-.95-.86Zm5.26-5.45c-2.05 0-3.7 1.52-3.7 3.88a4.03 4.03 0 0 0 4.13 3.95 4.1 4.1 0 0 0 2.86-1.12.26.26 0 0 0 0-.39l-.9-.87a.29.29 0 0 0-.41.01c-.16.17-.68.71-1.63.71-.9 0-1.92-.89-2.05-1.49h5.09c.14 0 .27-.1.28-.24.04-.23.04-.57.04-.85a3.67 3.67 0 0 0-3.71-3.6Zm-1.78 3.18c0-.93.81-1.66 1.83-1.66 1 0 1.82.73 1.82 1.66h-3.65Zm-11.69-2.43c-.29-.25-.6-.43-.95-.55a3.45 3.45 0 0 0-2.23.01 2.3 2.3 0 0 0-.53.25c-.17.09-.31.2-.43.3v-.3c0-.16-.14-.26-.28-.26h-1.35a.28.28 0 0 0-.28.27v6.91c0 .16.12.28.28.28h1.35c.16 0 .28-.12.28-.28v-4.13c0-.84.72-1.53 1.59-1.53.87 0 1.58.69 1.58 1.53v4.13c0 .16.13.28.29.28h1.35c.15 0 .28-.12.28-.28v-4.27a3.4 3.4 0 0 0-.25-1.4c-.2-.4-.41-.71-.7-.96Zm-15.18-.55h-1.47a.3.3 0 0 0-.27.18l-1.68 4.8-1.68-4.8c-.03-.1-.14-.18-.27-.18h-1.49a.28.28 0 0 0-.27.37l2.68 6.9c.05.11.14.2.27.2h1.49a.3.3 0 0 0 .27-.2l2.67-6.9c.08-.19-.04-.37-.25-.37Z" fill="#7000E3"/></g><defs><clipPath id="a"><path fill="#fff" d="M0 0h71v17h-71z"/></clipPath></defs></svg>